<?xml version="1.0" encoding="UTF-8"?>
                        <svg width="49px" height="67px" viewBox="0 0 49 67" version="1.1" xmlns="http://www.w3.org/2000/svg" xmlns:xlink="http://www.w3.org/1999/xlink">
                            <!-- Generator: Sketch 55.2 (78181) - https://sketchapp.com -->
                            <title>Maintenance Icon</title>
                            <desc>Created with Sketch.</desc>
                            <g id="Page-1" stroke="none" stroke-width="1" fill="none" fill-rule="evenodd" stroke-linecap="round" stroke-linejoin="round">
                                <g id="1_Factorie-Website_Main" transform="translate(-698.000000, -2834.000000)" stroke="#FFFFFF" stroke-width="3">
                                    <g id="features" transform="translate(0.000000, 2258.000000)">
                                        <g id="Maintenance" transform="translate(636.000000, 565.000000)">
                                            <g id="Maintenance-Icon" transform="translate(84.000000, 40.500000) rotate(60.000000) translate(-84.000000, -40.500000) translate(58.000000, 5.000000)">
                                                <path d="M42.1714198,31.6699915 L42.7680032,66.0474577 C42.8854857,68.6305666 40.8180642,70.8057903 38.1502881,70.905956 C38.0839533,70.9084466 38.0175655,70.9094711 37.9511667,70.9094711 C35.2292733,70.9030311 33.0165365,68.7617824 33.0088612,66.1268442 C33.0088612,66.0917158 33.0090773,66.0565893 33.0097767,66.0214714 L34.6463919,31.6522259 L42.1714198,31.6699915 Z" id="Path" transform="translate(37.890817, 51.280849) rotate(-30.000000) translate(-37.890817, -51.280849) "></path>
                                                <path d="M10.7703876,9.31054043 C12.2486713,7.88394073 14.0095686,6.767056 15.9576499,6.0587029 L16.0013811,23.1940374 L25.9424812,23.2209645 L25.8987501,6.08562998 C31.6958066,8.22097239 35.8598562,13.951578 35.8770669,20.6744731 C35.8987769,29.2020316 29.2402463,36.0969001 21.0047693,36.074647 C12.7692924,36.0522859 6.0754766,29.1212504 6.05366018,20.5936919 C6.04891592,18.7138899 6.36873479,16.9134255 6.95850397,15.2489048" id="Path" transform="translate(20.965364, 21.066675) rotate(-30.000000) translate(-20.965364, -21.066675) "></path>
                                            </g>
                                        </g>
                                    </g>
                                </g>
                            </g>
                        </svg>